<svg width="100" height="100" viewBox="0 0 100 100" fill="none" xmlns="http://www.w3.org/2000/svg" xmlns:xlink="http://www.w3.org/1999/xlink">
<path d="M99.225,61.357C99.225,82.7 81.951,100 60.644,100C39.337,100 22.063,82.7 22.063,61.357C22.063,40.015 39.337,22.718 60.644,22.718C81.951,22.718 99.225,40.018 99.225,61.357Z" fill="#2F30D0"/>
<path d="M60.798,96.54C80.114,96.54 95.773,80.857 95.773,61.511C95.773,42.165 80.114,26.482 60.798,26.482C41.481,26.482 25.822,42.165 25.822,61.511C25.822,80.857 41.481,96.54 60.798,96.54Z" fill="#2F81D0"/>
<path d="M61.179,37.992L69.133,61.476L69.142,61.511L69.133,61.545L61.179,85.03C61.057,85.396 60.541,85.396 60.419,85.03L52.465,61.545L52.456,61.511L52.465,61.476L60.419,37.992C60.541,37.626 61.057,37.626 61.179,37.992Z" fill="#2FD0CF"/>
<path d="M60.644,32.184L63.421,26.482L57.871,26.482L60.644,32.184Z" fill="#2F30D0"/>
<path d="M60.644,90.835L63.421,96.54L57.871,96.54L60.644,90.835Z" fill="#2F30D0"/>
<path d="M90.08,61.492L95.773,58.712L95.773,64.269L90.08,61.492Z" fill="#2F30D0"/>
<path d="M31.518,61.492L25.822,58.712L25.822,64.269L31.518,61.492Z" fill="#2F30D0"/>
<path d="M26.678,40.538C28.492,37.579 34.86,28.019 47.538,23.535C63.243,17.983 76.702,24.44 79.15,25.668C78.175,22.204 77.199,18.738 76.224,15.275C73.125,14.905 68.611,14.567 63.186,14.902C55.733,15.363 49.746,16.894 49.664,16.543C49.605,16.289 52.713,15.281 55.364,14.583C60.232,13.299 67.616,11.987 77.396,12.557C83.118,9.081 88.836,5.606 94.557,2.13C95.151,1.77 94.904,0.856 94.21,0.843C77.884,0.564 61.56,0.283 45.237,0.001C44.377,-0.015 43.533,0.214 42.798,0.658C28.923,9.031 15.051,17.401 1.179,25.774C0.419,26.234 0.735,27.402 1.623,27.415C8.876,27.509 16.126,27.603 23.38,27.693C24.48,31.974 25.581,36.257 26.678,40.538Z" fill="#2F81D0"/>
<path d="M7.979,67.282L-0.025,66.881L4.546,47.333L5.684,47.333L7.979,67.282Z" fill="#2F81D0"/>
<path d="M5.068,47.592C6.624,47.592 7.885,46.329 7.885,44.771C7.885,43.213 6.624,41.95 5.068,41.95C3.512,41.95 2.251,43.213 2.251,44.771C2.251,46.329 3.512,47.592 5.068,47.592Z" fill="#2F81D0"/>
<path d="M6.623,26.039L4.493,26.039L4.493,43.815L6.623,43.815L6.623,26.039Z" transform="rotate(7.151 5.558 34.927)" fill="#2F81D0"/>
<path d="M84.28,61.89L60.832,69.856L60.797,69.865L60.763,69.856L37.314,61.89C36.949,61.768 36.949,61.251 37.314,61.129L60.763,53.163L60.797,53.154L60.832,53.163L84.28,61.129C84.646,61.251 84.646,61.768 84.28,61.89Z" fill="#2FD0CF"/>
</svg>
